<svg xmlns="http://www.w3.org/2000/svg" width="1024" height="1024" viewBox="0 0 1024 1024" version="1.1"><path d="M 479 0.679 C 393.863 6.920, 319.123 30.474, 247 73.792 C 169.146 120.553, 104.249 188.822, 60.620 269.854 C 35.295 316.890, 16.592 370.765, 7.599 422.576 C -1.163 473.064, -2.383 526.807, 4.073 578 C 18.066 688.963, 69.206 793.070, 149 873.027 C 191.749 915.864, 234.681 946.446, 289.454 973.076 C 342.151 998.698, 396.893 1014.437, 458.500 1021.681 C 479.971 1024.205, 543.004 1024.207, 564.500 1021.684 C 640.148 1012.804, 705.527 991.627, 767.886 955.807 C 813.746 929.464, 860.202 891.501, 894.920 852 C 958.012 780.215, 998.696 697.335, 1015.511 606.339 C 1018.852 588.254, 1021.880 564.950, 1022.658 551.318 C 1023.016 545.053, 1023.689 539.692, 1024.154 539.405 C 1025.262 538.720, 1025.258 483, 1024.150 483 C 1023.683 483, 1022.994 477.959, 1022.620 471.797 C 1020.349 434.409, 1009.817 383.397, 996.424 344.920 C 980.633 299.555, 957.173 254.203, 928.954 214.490 C 890.930 160.979, 838.375 111.499, 783.500 77.547 C 711.040 32.714, 633.950 7.556, 549.050 1.033 C 536.890 0.099, 490.139 -0.137, 479 0.679 M 480.500 31.134 C 395.023 36.284, 310.803 65.456, 239.500 114.610 C 213.763 132.353, 194.800 148.184, 171.971 170.988 C 123.049 219.856, 88.032 273.031, 63.308 336 C 12.323 465.848, 20.329 612.927, 85.064 735.679 C 122.986 807.589, 177.124 867.477, 246 913.708 C 356.284 987.732, 495.146 1012.134, 625.666 980.423 C 712.081 959.429, 788.663 916.246, 852.533 852.500 C 877.335 827.745, 898.181 802.157, 916.569 773.893 C 1000.838 644.371, 1017.366 480.338, 960.692 336 C 936.060 273.266, 900.732 219.623, 852.028 171 C 815.055 134.090, 774.974 104.955, 729.500 81.936 C 652.259 42.836, 568.820 25.812, 480.500 31.134 M 184 430.500 L 184 640 212.500 640 L 241 640 241 546 L 241 452 351.500 452 L 462 452 462 546.015 L 462 640.031 490.750 639.765 L 519.500 639.500 519.752 430.250 L 520.005 221 491.002 221 L 462 221 462 311 L 462 401 351.500 401 L 241 401 241 311 L 241 221 212.500 221 L 184 221 184 430.500 M 572 430.468 L 572 640 601 640 L 630 640 630 571 L 630 502 696.901 502 C 759.328 502, 764.587 501.866, 775.549 499.992 C 827.332 491.139, 866.664 458.440, 883.285 410.424 C 889.409 392.733, 890.507 385.151, 890.442 361 C 890.392 342.841, 890.050 337.995, 888.239 329.817 C 884.078 311.030, 877.755 295.957, 867.923 281.385 C 847.713 251.436, 818.699 232.446, 780 223.836 L 769.500 221.500 670.750 221.218 L 572 220.935 572 430.468 M 630 361.567 L 630 452.134 692.750 451.749 C 746.048 451.421, 756.630 451.117, 763 449.731 C 802.774 441.073, 827.968 414.186, 833.023 375 C 839.167 327.377, 814.156 288.169, 769.544 275.491 C 756.266 271.717, 743.155 271.033, 683.750 271.016 L 630 271 630 361.567 M 0.441 512 C 0.441 527.675, 0.579 534.087, 0.748 526.250 C 0.917 518.412, 0.917 505.587, 0.748 497.750 C 0.579 489.912, 0.441 496.325, 0.441 512 M 321.923 706.923 C 318.316 710.530, 318.152 714.243, 321.455 717.545 C 325.870 721.961, 333.023 719.740, 334.598 713.465 C 335.371 710.387, 332.850 706.274, 329.383 704.955 C 325.707 703.558, 325.138 703.708, 321.923 706.923 M 662.709 706.624 C 662.319 707.014, 662 721.208, 662 738.167 L 662 769 669.014 769 L 676.028 769 675.764 737.750 L 675.500 706.500 669.459 706.208 C 666.136 706.047, 663.099 706.234, 662.709 706.624 M 226 739 L 226 769 233.500 769 L 241 769 241 757 L 241 745 252.500 745 L 264 745 264 757 L 264 769 271.500 769 L 279 769 279 739 L 279 709 271.500 709 L 264 709 264 721 L 264 733 252.500 733 L 241 733 241 721 L 241 709 233.500 709 L 226 709 226 739 M 502 739 L 502 769 508.960 769 L 515.919 769 516.210 760.750 L 516.500 752.500 526 751.998 C 533.655 751.594, 536.233 751.041, 539.271 749.153 C 544.595 745.846, 547.878 741.103, 549.158 734.869 C 551.198 724.935, 547.058 716.304, 538.070 711.750 C 532.850 709.106, 532.052 709, 517.321 709 L 502 709 502 739 M 392 719.500 L 392 725 388.500 725 L 385 725 385 730.500 L 385 736 388.500 736 L 392 736 392 747.599 C 392 765.661, 394.715 769, 409.401 769 L 417 769 417 763.500 L 417 758 412.200 758 C 409.560 758, 406.860 757.460, 406.200 756.800 C 405.430 756.030, 405 752.089, 405 745.800 L 405 736 411 736 L 417 736 417 730.500 L 417 725 411 725 L 405 725 405 719.500 L 405 714 398.500 714 L 392 714 392 719.500 M 516 730.500 L 516 740 523.045 740 C 529.192 740, 530.404 739.687, 532.545 737.545 C 534.405 735.686, 534.992 734.050, 534.968 730.795 C 534.915 723.592, 531.500 721, 522.066 721 L 516 721 516 730.500 M 439.648 724.967 C 431.882 727.458, 425.598 734.477, 424.138 742.291 C 422.257 752.358, 426.338 761.763, 434.728 766.695 C 438.826 769.104, 440.559 769.497, 447 769.477 C 455.771 769.450, 461.039 767.202, 465.762 761.473 C 474.928 750.352, 471.454 733.354, 458.683 726.838 C 454.092 724.496, 444.160 723.519, 439.648 724.967 M 569.323 725.577 C 563.887 727.582, 557.457 734.595, 555.952 740.159 C 553.230 750.222, 557.154 762.460, 564.573 767.045 C 571.826 771.528, 581.683 770.543, 586.467 764.857 L 589 761.847 589 765.423 L 589 769 595.572 769 L 602.144 769 601.822 754.166 C 601.507 739.640, 601.437 739.231, 598.459 734.416 C 594.393 727.842, 588.883 724.825, 580.128 724.376 C 575.851 724.157, 572.018 724.583, 569.323 725.577 M 698.885 725.318 C 693.203 727.445, 689.237 730.741, 686.254 735.815 C 681.240 744.344, 683.038 757.167, 690.153 763.633 C 694.972 768.012, 699.161 769.459, 707.078 769.480 C 713.787 769.498, 715.218 769.153, 719.552 766.474 C 722.586 764.598, 725.598 761.586, 727.474 758.552 C 730.049 754.387, 730.500 752.664, 730.500 747 C 730.500 741.336, 730.049 739.613, 727.474 735.448 C 723.261 728.635, 716.962 724.898, 708.803 724.372 C 704.965 724.124, 701.086 724.494, 698.885 725.318 M 295.325 726.459 C 289.199 729.124, 288.537 731.413, 288.169 751.203 L 287.838 769 294.894 769 L 301.950 769 302.225 752.750 L 302.500 736.500 308.250 736.200 L 314 735.900 314 730.450 L 314 725 306.250 725.039 C 301.947 725.061, 297.088 725.692, 295.325 726.459 M 320 747 L 320 769 327 769 L 334 769 334 747 L 334 725 327 725 L 320 725 320 747 M 349.270 726.483 C 344.746 728.449, 342.008 733.365, 342.004 739.527 C 341.997 748.396, 346.253 751.697, 358.961 752.677 C 366.671 753.271, 368.677 754.286, 367.120 756.806 C 366.688 757.504, 362.078 758.039, 354.962 758.215 L 343.500 758.500 343.198 763.750 L 342.895 769 355.980 769 C 364.874 769, 370.127 768.556, 372.383 767.613 C 377.211 765.596, 380.346 760.681, 380.430 754.997 C 380.571 745.546, 376.184 741.933, 363.500 741.054 C 356.351 740.559, 355.500 740.287, 355.500 738.500 C 355.500 736.659, 356.333 736.460, 366 736 L 376.500 735.500 376.802 730.250 L 377.105 725 364.802 725.039 C 356.518 725.066, 351.445 725.537, 349.270 726.483 M 608.072 725.750 C 608.112 726.163, 611.149 735.269, 614.822 745.986 C 620.953 763.874, 621.779 765.657, 624.898 767.736 C 626.899 769.069, 629.819 770, 632 770 C 634.181 770, 637.101 769.069, 639.102 767.736 C 642.221 765.657, 643.047 763.874, 649.178 745.986 C 652.851 735.269, 655.888 726.163, 655.928 725.750 C 655.968 725.337, 652.869 725, 649.042 725 L 642.085 725 640.042 732 C 638.919 735.850, 637.071 742.263, 635.935 746.250 C 634.800 750.237, 633.644 754.288, 633.368 755.250 C 633.091 756.212, 632.518 757, 632.093 757 C 631.668 757, 629.348 749.800, 626.938 741 L 622.556 725 615.278 725 C 611.275 725, 608.032 725.337, 608.072 725.750 M 735 725.854 C 735 727.122, 746.952 762.023, 748.167 764.304 C 750.809 769.262, 759.399 771.396, 765.020 768.490 C 768.876 766.496, 769.239 765.719, 776.579 743.764 L 782.881 724.915 775.720 725.207 L 768.560 725.500 764.162 741 C 761.743 749.525, 759.592 756.688, 759.382 756.917 C 758.565 757.808, 757.858 755.825, 753.672 740.917 L 749.344 725.500 742.172 725.206 C 738.146 725.041, 735 725.325, 735 725.854 M 440.306 738.413 C 437.795 740.573, 437.500 741.476, 437.500 747 C 437.500 752.524, 437.795 753.427, 440.306 755.587 C 444.547 759.234, 451.002 758.975, 454.326 755.024 C 458.853 749.644, 458.644 743.465, 453.759 738.250 C 450.770 735.059, 444.111 735.140, 440.306 738.413 M 572.150 738.340 C 566.237 744.635, 568.155 755.802, 575.500 757.840 C 579.916 759.065, 584.720 757.442, 586.422 754.151 C 589.240 748.701, 588.871 743.188, 585.411 739.077 C 582.023 735.050, 575.577 734.692, 572.150 738.340 M 699.923 738.923 C 697.449 741.398, 697 742.637, 697 747 C 697 751.363, 697.449 752.602, 699.923 755.077 C 702.216 757.369, 703.742 758, 707 758 C 710.258 758, 711.784 757.369, 714.077 755.077 C 716.551 752.602, 717 751.363, 717 747 C 717 742.637, 716.551 741.398, 714.077 738.923 C 711.784 736.631, 710.258 736, 707 736 C 703.742 736, 702.216 736.631, 699.923 738.923 M 339.182 822.750 C 339.613 843.075, 340.229 845.675, 345.615 849.912 C 352.213 855.102, 362.550 855.090, 368.477 849.886 C 377.886 841.625, 376.525 824.942, 365.998 819.499 C 360.162 816.481, 349.682 818.282, 347.080 822.750 C 346.339 824.022, 346.053 821.702, 346.030 814.250 L 346 804 342.392 804 L 338.784 804 339.182 822.750 M 427.970 814.250 C 427.947 821.702, 427.661 824.022, 426.920 822.750 C 424.011 817.756, 412.733 816.341, 406.990 820.250 C 402.070 823.599, 399.775 827.288, 399.256 832.683 C 398.565 839.882, 400.382 845.209, 404.932 849.319 C 415.043 858.454, 431.057 853.289, 433.913 839.972 C 434.511 837.183, 435 827.949, 435 819.451 L 435 804 431.500 804 L 428 804 427.970 814.250 M 226 823.032 C 226 842.177, 226.592 844.678, 232.309 849.698 C 238.859 855.449, 250.033 855.121, 256.156 848.998 L 258.977 846.177 262.299 849.499 C 270.840 858.040, 287.595 853.325, 290.891 841.453 C 291.495 839.279, 291.991 830.413, 291.994 821.750 L 292 806 288.500 806 L 285 806 284.996 822.750 C 284.993 837.727, 284.781 839.847, 282.996 842.775 C 279.844 847.945, 273.678 849.436, 267.872 846.434 C 262.915 843.870, 262 840.069, 262 822.032 L 262 806 259 806 L 256 806 255.994 820.750 C 255.988 837.717, 255.130 841.872, 250.894 845.436 C 246.285 849.314, 240.797 848.997, 236.400 844.600 L 233 841.200 233 823.600 L 233 806 229.500 806 L 226 806 226 823.032 M 307.284 820.093 C 298.357 825.811, 296.465 840.282, 303.734 847.245 C 307.942 851.275, 313.107 853, 320.968 853 C 327.696 853, 328 852.898, 328 850.634 C 328 848.428, 327.545 848.236, 321.242 847.785 C 313.382 847.223, 308.875 845.215, 307.195 841.528 C 306.538 840.086, 306 838.702, 306 838.453 C 306 838.204, 311.913 838, 319.139 838 L 332.279 838 331.693 833.054 C 330.473 822.753, 325.509 817.998, 316 818.021 C 312.172 818.030, 309.523 818.660, 307.284 820.093 M 450.284 820.093 C 441.357 825.811, 439.465 840.282, 446.734 847.245 C 450.942 851.275, 456.107 853, 463.968 853 C 470.696 853, 471 852.898, 471 850.634 C 471 848.428, 470.545 848.236, 464.242 847.785 C 456.382 847.223, 451.875 845.215, 450.195 841.528 C 449.538 840.086, 449 838.702, 449 838.453 C 449 838.204, 454.913 838, 462.139 838 L 475.279 838 474.693 833.054 C 473.473 822.753, 468.509 817.998, 459 818.021 C 455.172 818.030, 452.523 818.660, 450.284 820.093 M 479.709 818.750 C 478.875 820.279, 490.933 850.511, 493.071 852.250 C 495.866 854.524, 499.116 854.472, 501.648 852.114 C 503.419 850.464, 515 821.665, 515 818.911 C 515 818.340, 513.564 818.014, 511.808 818.187 C 508.658 818.496, 508.549 818.688, 503.426 833 C 500.571 840.975, 497.845 847.442, 497.367 847.370 C 496.530 847.245, 494.434 842.092, 488.575 825.750 C 485.996 818.555, 485.594 818, 482.958 818 C 481.396 818, 479.934 818.337, 479.709 818.750 M 311.303 824.197 C 309.446 825.094, 306 830.426, 306 832.401 C 306 832.731, 310.275 833, 315.500 833 C 325.741 833, 326.193 832.712, 323.890 827.657 C 321.996 823.502, 316.098 821.880, 311.303 824.197 M 351.420 824.829 C 347.382 827.365, 345.607 831.818, 346.274 837.734 C 347.711 850.486, 364.424 851.988, 367.825 839.672 C 370.875 828.624, 360.428 819.172, 351.420 824.829 M 412.500 823.945 C 407.668 825.923, 404.693 832.332, 405.707 838.580 C 407.137 847.397, 417.484 851.113, 424.113 845.191 C 430.121 839.823, 428.940 828.089, 422.033 824.517 C 418.834 822.863, 415.616 822.670, 412.500 823.945 M 454.303 824.197 C 452.446 825.094, 449 830.426, 449 832.401 C 449 832.731, 453.275 833, 458.500 833 C 468.741 833, 469.193 832.712, 466.890 827.657 C 464.996 823.502, 459.098 821.880, 454.303 824.197" stroke="none" fill="#2cd304" fill-rule="evenodd"/><path d="M 480.500 31.134 C 395.023 36.284, 310.803 65.456, 239.500 114.610 C 213.763 132.353, 194.800 148.184, 171.971 170.988 C 123.049 219.856, 88.032 273.031, 63.308 336 C 12.323 465.848, 20.329 612.927, 85.064 735.679 C 122.986 807.589, 177.124 867.477, 246 913.708 C 356.284 987.732, 495.146 1012.134, 625.666 980.423 C 712.081 959.429, 788.663 916.246, 852.533 852.500 C 877.335 827.745, 898.181 802.157, 916.569 773.893 C 1000.838 644.371, 1017.366 480.338, 960.692 336 C 936.060 273.266, 900.732 219.623, 852.028 171 C 815.055 134.090, 774.974 104.955, 729.500 81.936 C 652.259 42.836, 568.820 25.812, 480.500 31.134 M 184 430.500 L 184 640 212.500 640 L 241 640 241 546 L 241 452 351.500 452 L 462 452 462 546.015 L 462 640.031 490.750 639.765 L 519.500 639.500 519.752 430.250 L 520.005 221 491.002 221 L 462 221 462 311 L 462 401 351.500 401 L 241 401 241 311 L 241 221 212.500 221 L 184 221 184 430.500 M 572 430.468 L 572 640 601 640 L 630 640 630 571 L 630 502 696.901 502 C 759.328 502, 764.587 501.866, 775.549 499.992 C 827.332 491.139, 866.664 458.440, 883.285 410.424 C 889.409 392.733, 890.507 385.151, 890.442 361 C 890.392 342.841, 890.050 337.995, 888.239 329.817 C 884.078 311.030, 877.755 295.957, 867.923 281.385 C 847.713 251.436, 818.699 232.446, 780 223.836 L 769.500 221.500 670.750 221.218 L 572 220.935 572 430.468 M 630 361.567 L 630 452.134 692.750 451.749 C 746.048 451.421, 756.630 451.117, 763 449.731 C 802.774 441.073, 827.968 414.186, 833.023 375 C 839.167 327.377, 814.156 288.169, 769.544 275.491 C 756.266 271.717, 743.155 271.033, 683.750 271.016 L 630 271 630 361.567 M 321.923 706.923 C 318.316 710.530, 318.152 714.243, 321.455 717.545 C 325.870 721.961, 333.023 719.740, 334.598 713.465 C 335.371 710.387, 332.850 706.274, 329.383 704.955 C 325.707 703.558, 325.138 703.708, 321.923 706.923 M 662.709 706.624 C 662.319 707.014, 662 721.208, 662 738.167 L 662 769 669.014 769 L 676.028 769 675.764 737.750 L 675.500 706.500 669.459 706.208 C 666.136 706.047, 663.099 706.234, 662.709 706.624 M 226 739 L 226 769 233.500 769 L 241 769 241 757 L 241 745 252.500 745 L 264 745 264 757 L 264 769 271.500 769 L 279 769 279 739 L 279 709 271.500 709 L 264 709 264 721 L 264 733 252.500 733 L 241 733 241 721 L 241 709 233.500 709 L 226 709 226 739 M 502 739 L 502 769 508.960 769 L 515.919 769 516.210 760.750 L 516.500 752.500 526 751.998 C 533.655 751.594, 536.233 751.041, 539.271 749.153 C 544.595 745.846, 547.878 741.103, 549.158 734.869 C 551.198 724.935, 547.058 716.304, 538.070 711.750 C 532.850 709.106, 532.052 709, 517.321 709 L 502 709 502 739 M 392 719.500 L 392 725 388.500 725 L 385 725 385 730.500 L 385 736 388.500 736 L 392 736 392 747.599 C 392 765.661, 394.715 769, 409.401 769 L 417 769 417 763.500 L 417 758 412.200 758 C 409.560 758, 406.860 757.460, 406.200 756.800 C 405.430 756.030, 405 752.089, 405 745.800 L 405 736 411 736 L 417 736 417 730.500 L 417 725 411 725 L 405 725 405 719.500 L 405 714 398.500 714 L 392 714 392 719.500 M 516 730.500 L 516 740 523.045 740 C 529.192 740, 530.404 739.687, 532.545 737.545 C 534.405 735.686, 534.992 734.050, 534.968 730.795 C 534.915 723.592, 531.500 721, 522.066 721 L 516 721 516 730.500 M 439.648 724.967 C 431.882 727.458, 425.598 734.477, 424.138 742.291 C 422.257 752.358, 426.338 761.763, 434.728 766.695 C 438.826 769.104, 440.559 769.497, 447 769.477 C 455.771 769.450, 461.039 767.202, 465.762 761.473 C 474.928 750.352, 471.454 733.354, 458.683 726.838 C 454.092 724.496, 444.160 723.519, 439.648 724.967 M 569.323 725.577 C 563.887 727.582, 557.457 734.595, 555.952 740.159 C 553.230 750.222, 557.154 762.460, 564.573 767.045 C 571.826 771.528, 581.683 770.543, 586.467 764.857 L 589 761.847 589 765.423 L 589 769 595.572 769 L 602.144 769 601.822 754.166 C 601.507 739.640, 601.437 739.231, 598.459 734.416 C 594.393 727.842, 588.883 724.825, 580.128 724.376 C 575.851 724.157, 572.018 724.583, 569.323 725.577 M 698.885 725.318 C 693.203 727.445, 689.237 730.741, 686.254 735.815 C 681.240 744.344, 683.038 757.167, 690.153 763.633 C 694.972 768.012, 699.161 769.459, 707.078 769.480 C 713.787 769.498, 715.218 769.153, 719.552 766.474 C 722.586 764.598, 725.598 761.586, 727.474 758.552 C 730.049 754.387, 730.500 752.664, 730.500 747 C 730.500 741.336, 730.049 739.613, 727.474 735.448 C 723.261 728.635, 716.962 724.898, 708.803 724.372 C 704.965 724.124, 701.086 724.494, 698.885 725.318 M 295.325 726.459 C 289.199 729.124, 288.537 731.413, 288.169 751.203 L 287.838 769 294.894 769 L 301.950 769 302.225 752.750 L 302.500 736.500 308.250 736.200 L 314 735.900 314 730.450 L 314 725 306.250 725.039 C 301.947 725.061, 297.088 725.692, 295.325 726.459 M 320 747 L 320 769 327 769 L 334 769 334 747 L 334 725 327 725 L 320 725 320 747 M 349.270 726.483 C 344.746 728.449, 342.008 733.365, 342.004 739.527 C 341.997 748.396, 346.253 751.697, 358.961 752.677 C 366.671 753.271, 368.677 754.286, 367.120 756.806 C 366.688 757.504, 362.078 758.039, 354.962 758.215 L 343.500 758.500 343.198 763.750 L 342.895 769 355.980 769 C 364.874 769, 370.127 768.556, 372.383 767.613 C 377.211 765.596, 380.346 760.681, 380.430 754.997 C 380.571 745.546, 376.184 741.933, 363.500 741.054 C 356.351 740.559, 355.500 740.287, 355.500 738.500 C 355.500 736.659, 356.333 736.460, 366 736 L 376.500 735.500 376.802 730.250 L 377.105 725 364.802 725.039 C 356.518 725.066, 351.445 725.537, 349.270 726.483 M 608.072 725.750 C 608.112 726.163, 611.149 735.269, 614.822 745.986 C 620.953 763.874, 621.779 765.657, 624.898 767.736 C 626.899 769.069, 629.819 770, 632 770 C 634.181 770, 637.101 769.069, 639.102 767.736 C 642.221 765.657, 643.047 763.874, 649.178 745.986 C 652.851 735.269, 655.888 726.163, 655.928 725.750 C 655.968 725.337, 652.869 725, 649.042 725 L 642.085 725 640.042 732 C 638.919 735.850, 637.071 742.263, 635.935 746.250 C 634.800 750.237, 633.644 754.288, 633.368 755.250 C 633.091 756.212, 632.518 757, 632.093 757 C 631.668 757, 629.348 749.800, 626.938 741 L 622.556 725 615.278 725 C 611.275 725, 608.032 725.337, 608.072 725.750 M 735 725.854 C 735 727.122, 746.952 762.023, 748.167 764.304 C 750.809 769.262, 759.399 771.396, 765.020 768.490 C 768.876 766.496, 769.239 765.719, 776.579 743.764 L 782.881 724.915 775.720 725.207 L 768.560 725.500 764.162 741 C 761.743 749.525, 759.592 756.688, 759.382 756.917 C 758.565 757.808, 757.858 755.825, 753.672 740.917 L 749.344 725.500 742.172 725.206 C 738.146 725.041, 735 725.325, 735 725.854 M 440.306 738.413 C 437.795 740.573, 437.500 741.476, 437.500 747 C 437.500 752.524, 437.795 753.427, 440.306 755.587 C 444.547 759.234, 451.002 758.975, 454.326 755.024 C 458.853 749.644, 458.644 743.465, 453.759 738.250 C 450.770 735.059, 444.111 735.140, 440.306 738.413 M 572.150 738.340 C 566.237 744.635, 568.155 755.802, 575.500 757.840 C 579.916 759.065, 584.720 757.442, 586.422 754.151 C 589.240 748.701, 588.871 743.188, 585.411 739.077 C 582.023 735.050, 575.577 734.692, 572.150 738.340 M 699.923 738.923 C 697.449 741.398, 697 742.637, 697 747 C 697 751.363, 697.449 752.602, 699.923 755.077 C 702.216 757.369, 703.742 758, 707 758 C 710.258 758, 711.784 757.369, 714.077 755.077 C 716.551 752.602, 717 751.363, 717 747 C 717 742.637, 716.551 741.398, 714.077 738.923 C 711.784 736.631, 710.258 736, 707 736 C 703.742 736, 702.216 736.631, 699.923 738.923 M 339.182 822.750 C 339.613 843.075, 340.229 845.675, 345.615 849.912 C 352.213 855.102, 362.550 855.090, 368.477 849.886 C 377.886 841.625, 376.525 824.942, 365.998 819.499 C 360.162 816.481, 349.682 818.282, 347.080 822.750 C 346.339 824.022, 346.053 821.702, 346.030 814.250 L 346 804 342.392 804 L 338.784 804 339.182 822.750 M 427.970 814.250 C 427.947 821.702, 427.661 824.022, 426.920 822.750 C 424.011 817.756, 412.733 816.341, 406.990 820.250 C 402.070 823.599, 399.775 827.288, 399.256 832.683 C 398.565 839.882, 400.382 845.209, 404.932 849.319 C 415.043 858.454, 431.057 853.289, 433.913 839.972 C 434.511 837.183, 435 827.949, 435 819.451 L 435 804 431.500 804 L 428 804 427.970 814.250 M 226 823.032 C 226 842.177, 226.592 844.678, 232.309 849.698 C 238.859 855.449, 250.033 855.121, 256.156 848.998 L 258.977 846.177 262.299 849.499 C 270.840 858.040, 287.595 853.325, 290.891 841.453 C 291.495 839.279, 291.991 830.413, 291.994 821.750 L 292 806 288.500 806 L 285 806 284.996 822.750 C 284.993 837.727, 284.781 839.847, 282.996 842.775 C 279.844 847.945, 273.678 849.436, 267.872 846.434 C 262.915 843.870, 262 840.069, 262 822.032 L 262 806 259 806 L 256 806 255.994 820.750 C 255.988 837.717, 255.130 841.872, 250.894 845.436 C 246.285 849.314, 240.797 848.997, 236.400 844.600 L 233 841.200 233 823.600 L 233 806 229.500 806 L 226 806 226 823.032 M 307.284 820.093 C 298.357 825.811, 296.465 840.282, 303.734 847.245 C 307.942 851.275, 313.107 853, 320.968 853 C 327.696 853, 328 852.898, 328 850.634 C 328 848.428, 327.545 848.236, 321.242 847.785 C 313.382 847.223, 308.875 845.215, 307.195 841.528 C 306.538 840.086, 306 838.702, 306 838.453 C 306 838.204, 311.913 838, 319.139 838 L 332.279 838 331.693 833.054 C 330.473 822.753, 325.509 817.998, 316 818.021 C 312.172 818.030, 309.523 818.660, 307.284 820.093 M 450.284 820.093 C 441.357 825.811, 439.465 840.282, 446.734 847.245 C 450.942 851.275, 456.107 853, 463.968 853 C 470.696 853, 471 852.898, 471 850.634 C 471 848.428, 470.545 848.236, 464.242 847.785 C 456.382 847.223, 451.875 845.215, 450.195 841.528 C 449.538 840.086, 449 838.702, 449 838.453 C 449 838.204, 454.913 838, 462.139 838 L 475.279 838 474.693 833.054 C 473.473 822.753, 468.509 817.998, 459 818.021 C 455.172 818.030, 452.523 818.660, 450.284 820.093 M 479.709 818.750 C 478.875 820.279, 490.933 850.511, 493.071 852.250 C 495.866 854.524, 499.116 854.472, 501.648 852.114 C 503.419 850.464, 515 821.665, 515 818.911 C 515 818.340, 513.564 818.014, 511.808 818.187 C 508.658 818.496, 508.549 818.688, 503.426 833 C 500.571 840.975, 497.845 847.442, 497.367 847.370 C 496.530 847.245, 494.434 842.092, 488.575 825.750 C 485.996 818.555, 485.594 818, 482.958 818 C 481.396 818, 479.934 818.337, 479.709 818.750 M 311.303 824.197 C 309.446 825.094, 306 830.426, 306 832.401 C 306 832.731, 310.275 833, 315.500 833 C 325.741 833, 326.193 832.712, 323.890 827.657 C 321.996 823.502, 316.098 821.880, 311.303 824.197 M 351.420 824.829 C 347.382 827.365, 345.607 831.818, 346.274 837.734 C 347.711 850.486, 364.424 851.988, 367.825 839.672 C 370.875 828.624, 360.428 819.172, 351.420 824.829 M 412.500 823.945 C 407.668 825.923, 404.693 832.332, 405.707 838.580 C 407.137 847.397, 417.484 851.113, 424.113 845.191 C 430.121 839.823, 428.940 828.089, 422.033 824.517 C 418.834 822.863, 415.616 822.670, 412.500 823.945 M 454.303 824.197 C 452.446 825.094, 449 830.426, 449 832.401 C 449 832.731, 453.275 833, 458.500 833 C 468.741 833, 469.193 832.712, 466.890 827.657 C 464.996 823.502, 459.098 821.880, 454.303 824.197" stroke="none" fill="#141414" fill-rule="evenodd"/></svg>