<svg xmlns="http://www.w3.org/2000/svg" width="1024" height="1024" viewBox="0 0 1024 1024" version="1.1"><path d="M 141 0.676 C 133.305 1.483, 117.267 5.323, 107.732 8.641 C 54.027 27.335, 14.686 72.379, 2.754 128.836 L 0.500 139.500 0.500 512.500 L 0.500 885.500 2.748 895.648 C 7.711 918.052, 18.217 941.689, 30.707 958.557 C 39.288 970.144, 56.217 986.855, 67.301 994.678 C 84.756 1006.998, 108.123 1016.961, 130.500 1021.624 C 139.207 1023.439, 151.607 1023.500, 512 1023.500 C 866.779 1023.500, 884.921 1023.414, 893.346 1021.700 C 950.812 1010.005, 996.488 970.480, 1015.432 916.057 C 1019.230 905.146, 1023 888.505, 1023 882.652 C 1023 880.708, 1023.450 878.840, 1024 878.500 C 1024.664 878.090, 1025 754.470, 1025 510.882 C 1025 266.470, 1024.666 144.088, 1024 144.500 C 1023.408 144.866, 1023 143.723, 1023 141.698 C 1023 135.975, 1018.970 118.109, 1015.289 107.512 C 1007.308 84.539, 994.451 64.273, 976.571 46.487 C 954.617 24.647, 927.849 10.095, 896.159 2.772 L 886.500 0.540 515.500 0.425 C 311.450 0.361, 142.925 0.475, 141 0.676 M 144 31.109 C 134.839 32.147, 128.797 33.518, 119 36.781 C 98.873 43.485, 80.853 55.046, 65.482 71.117 C 49.423 87.907, 38.390 108.855, 32.650 133.452 L 30.538 142.500 30.252 507 C 29.937 907.963, 29.560 882.236, 36.052 902.505 C 41.202 918.580, 47.364 930.330, 57.578 943.551 C 77.154 968.890, 103.547 984.964, 136.626 991.695 C 145.086 993.416, 162.606 993.500, 512 993.500 C 861.394 993.500, 878.914 993.416, 887.374 991.695 C 916.552 985.758, 939.433 973.245, 958.557 952.767 C 972.025 938.346, 981.846 921.554, 987.956 902.500 C 994.416 882.352, 994.062 906.710, 993.724 506.500 C 993.438 168.062, 993.297 141.975, 991.716 135.025 C 985.926 109.586, 975.060 88.647, 958.653 71.315 C 936.833 48.263, 909.319 34.395, 878.789 31.061 C 866.907 29.763, 155.470 29.810, 144 31.109 M 0.495 512 C 0.495 714.125, 0.610 796.812, 0.750 695.750 C 0.890 594.687, 0.890 429.312, 0.750 328.250 C 0.610 227.187, 0.495 309.875, 0.495 512 M 122.667 201.667 C 122.300 202.033, 122 308.233, 122 437.667 L 122 673 154.495 673 L 186.991 673 187.245 567.250 L 187.500 461.500 311.500 461.500 L 435.500 461.500 435.755 567.250 L 436.009 673 468.005 673 L 500 673 500 437 L 500 201 468 201 L 436 201 436 302.500 L 436 404 311.500 404 L 187 404 187 302.500 L 187 201 155.167 201 C 137.658 201, 123.033 201.300, 122.667 201.667 M 560 437 L 560 673 592 673 L 624 673 624 596 L 624 519 690.750 518.998 C 727.462 518.996, 763.549 518.534, 770.942 517.970 C 810.699 514.937, 844.368 500.724, 870.344 476.009 C 905.226 442.819, 921.851 397.718, 918.011 346.692 C 914.918 305.581, 901.396 275.425, 873.512 247.449 C 846.165 220.014, 812.874 205.258, 771 202.014 C 764.125 201.481, 713.837 201.035, 659.250 201.023 L 560 201 560 437 M 624.461 259.250 C 624.199 259.938, 624.101 305.725, 624.242 361 L 624.500 461.500 692.500 461.475 C 766.659 461.447, 769.100 461.291, 787.402 455.411 C 821.126 444.576, 844.340 419.134, 851.664 384.984 C 853.889 374.607, 854.184 346.827, 852.168 337.500 C 847.606 316.387, 838.950 300.746, 824.099 286.775 C 806.295 270.027, 785.426 261.339, 757.423 259.019 C 738.904 257.485, 625.058 257.683, 624.461 259.250 M 255.032 745.187 C 246.167 751.193, 250.041 764, 260.723 764 C 264.287 764, 265.726 763.428, 268.077 761.077 C 276.767 752.387, 265.200 738.297, 255.032 745.187 M 716 788.500 L 716 831 725 831 L 734 831 734 788.500 L 734 746 725 746 L 716 746 716 788.500 M 124.702 749.632 C 124.316 750.018, 124 768.483, 124 790.667 L 124 831 134 831 L 144 831 144 814.500 L 144 798 159.500 798 L 175 798 175 814.500 L 175 831 185 831 L 195 831 195 789.964 L 195 748.928 185.250 749.214 L 175.500 749.500 175.225 765.250 L 174.949 781 159.500 781 L 144.051 781 143.775 765.250 L 143.500 749.500 134.452 749.215 C 129.475 749.058, 125.087 749.246, 124.702 749.632 M 498.750 749.559 C 498.337 749.985, 498 768.483, 498 790.667 L 498 831 508 831 L 518 831 518 819.603 L 518 808.206 530.250 807.839 C 541.590 807.500, 542.898 807.253, 547.859 804.518 C 558.106 798.868, 563.008 790.301, 562.990 778.072 C 562.978 769.806, 560.003 763.023, 554.029 757.637 C 546.003 750.401, 543.120 749.687, 520 749.209 C 508.725 748.976, 499.163 749.134, 498.750 749.559 M 349 764 L 349 771 344 771 L 339 771 339 778.500 L 339 786 344 786 L 349 786 349 801.788 C 349 816.172, 349.200 817.973, 351.250 822.038 C 354.761 829.001, 359.660 831, 373.212 831 L 384 831 384 823.500 L 384 816 376.700 816 C 372.356 816, 368.914 815.514, 368.200 814.800 C 367.383 813.983, 367 809.200, 367 799.800 L 367 786 375.500 786 L 384 786 384 778.500 L 384 771 375.500 771 L 367 771 367 764 L 367 757 358 757 L 349 757 349 764 M 518 779.099 L 518 792.199 526.928 791.849 C 534.090 791.569, 536.415 791.083, 538.678 789.393 C 545.034 784.644, 545.430 775.230, 539.521 769.321 C 536.246 766.046, 536.073 766, 527.100 766 L 518 766 518 779.099 M 415 770.877 C 400.257 775.719, 391.072 788.854, 392.242 803.422 C 393.165 814.929, 399.312 824.025, 409.577 829.077 C 413.798 831.154, 415.926 831.498, 424.500 831.489 C 433.382 831.480, 435.066 831.181, 439.563 828.817 C 449.910 823.378, 456.210 813.337, 456.357 802.049 C 456.523 789.251, 450.272 778.726, 439.323 773.369 C 434.879 771.196, 432.035 770.567, 425.608 770.341 C 421.149 770.184, 416.375 770.426, 415 770.877 M 593 770.935 C 583.751 773.759, 575.268 781.666, 572.479 790.063 C 569.890 797.858, 570.366 808.838, 573.606 816.058 C 576.483 822.468, 582.092 828.305, 587.578 830.597 C 591.998 832.444, 602.115 832.386, 606.782 830.488 C 608.827 829.656, 611.956 827.294, 613.735 825.238 L 616.970 821.500 616.985 826.250 L 617 831 626 831 L 635 831 634.980 817.250 C 634.969 809.688, 634.507 800.364, 633.953 796.532 C 632.122 783.862, 624.813 774.804, 613.774 771.526 C 608.419 769.935, 597.310 769.619, 593 770.935 M 765.492 771.738 C 757.209 774.700, 749.384 782.051, 746.585 789.500 C 743.915 796.606, 744.399 809.004, 747.588 815.170 C 750.185 820.193, 756.143 826.037, 761.437 828.755 C 768.732 832.500, 781.181 833.066, 789.262 830.020 C 809.172 822.514, 815.517 796.801, 801.348 781.042 C 794.739 773.691, 788.473 770.746, 778.500 770.303 C 772.616 770.041, 769.176 770.421, 765.492 771.738 M 219.684 772.449 C 217.585 773.197, 214.951 774.639, 213.831 775.653 C 209.283 779.769, 209 781.600, 209 806.950 L 209 831 218 831 L 227 831 227 809.107 C 227 784.138, 226.228 786, 236.582 786 L 243 786 243 778.500 L 243 771 233.250 771.044 C 227.677 771.069, 221.865 771.671, 219.684 772.449 M 252 801 L 252 831 261 831 L 270 831 270 801 L 270 771 261 771 L 252 771 252 801 M 294.764 771.996 C 286.185 774.579, 281 781.331, 281 789.918 C 281 803.128, 289.135 809, 307.436 809 C 313.795 809, 316 810.072, 316 813.165 C 316 816.273, 312.507 817, 297.566 817 L 283 817 283 824 L 283 831 300.532 831 C 314.094 831, 318.903 830.650, 321.768 829.452 C 332.087 825.141, 336.721 813.522, 332.119 803.500 C 328.581 795.796, 324.650 793.948, 310 793.105 L 299.500 792.500 299.500 789.500 L 299.500 786.500 313.750 786.223 L 328 785.945 328 778.473 L 328 771 312.750 771.086 C 304.363 771.133, 296.269 771.543, 294.764 771.996 M 651.054 797.662 C 656.784 814.825, 660.764 825.190, 662.227 826.757 C 665.706 830.482, 669.405 832, 675 832 C 680.595 832, 684.294 830.482, 687.773 826.757 C 689.236 825.190, 693.219 814.815, 698.958 797.626 L 707.871 770.929 698.185 771.215 L 688.500 771.500 682.353 792.814 C 678.972 804.537, 675.971 814.363, 675.684 814.650 C 674.721 815.612, 673.254 811.590, 669.062 796.500 C 666.770 788.250, 664.212 779.138, 663.376 776.250 L 661.858 771 652.006 771 L 642.153 771 651.054 797.662 M 815 771.713 C 815 774.419, 832.523 824.395, 834.234 826.571 C 840.502 834.539, 857.138 833.428, 861.637 824.740 C 862.949 822.207, 880 772.525, 880 771.236 C 880 771.066, 875.658 771.056, 870.350 771.214 L 860.701 771.500 854.567 793 C 851.193 804.825, 847.998 814.500, 847.466 814.500 C 846.935 814.500, 843.755 804.825, 840.400 793 L 834.300 771.500 824.650 771.214 C 819.342 771.056, 815 771.281, 815 771.713 M 415.941 788.703 C 409.849 793.829, 408.460 801.188, 412.148 808.806 C 417.145 819.128, 431.216 819.217, 436.520 808.961 C 438.837 804.480, 438.437 795.944, 435.720 791.912 C 432.806 787.588, 429.670 786.033, 423.827 786.015 C 420.194 786.003, 418.438 786.602, 415.941 788.703 M 595.190 788.026 C 587.268 792.856, 586.856 807.809, 594.480 813.806 C 598.545 817.003, 603.216 817.553, 607.642 815.353 C 612.855 812.762, 615.248 809.056, 615.770 802.762 C 616.599 792.769, 611.243 786.007, 602.500 786.007 C 600.248 786.007, 597.053 786.889, 595.190 788.026 M 769.299 787.960 C 765.008 790.576, 762.999 794.801, 763.004 801.200 C 763.010 810.519, 768.395 816.385, 776.944 816.385 C 790.662 816.385, 796.063 797.963, 785.059 788.703 C 781.042 785.323, 774.155 784.998, 769.299 787.960 M 235.182 874.750 C 235.613 895.075, 236.229 897.675, 241.615 901.912 C 248.213 907.102, 258.550 907.090, 264.477 901.886 C 273.886 893.625, 272.525 876.942, 261.998 871.499 C 256.162 868.481, 245.682 870.282, 243.080 874.750 C 242.339 876.022, 242.053 873.702, 242.030 866.250 L 242 856 238.392 856 L 234.784 856 235.182 874.750 M 324 866.104 L 324 876.207 320.465 873.104 C 313.962 867.393, 303.543 869.291, 297.639 877.261 C 294.402 881.629, 294.199 891.295, 297.225 896.947 C 303.447 908.571, 321.232 908.850, 327.734 897.425 C 329.824 893.751, 329.968 892.299, 329.984 874.750 L 330 856 327 856 L 324 856 324 866.104 M 122 875.540 C 122 891.014, 122.232 893.534, 123.969 896.939 C 127.995 904.831, 138.946 908.141, 147.434 904.032 C 149.964 902.807, 152.506 900.923, 153.083 899.846 C 154.080 897.982, 154.320 898.057, 157.988 901.370 C 166.453 909.017, 180.661 906.556, 185.373 896.626 C 186.684 893.863, 187 889.781, 187 875.599 L 187 858 184 858 L 181 858 181 874.032 C 181 892.069, 180.085 895.870, 175.128 898.434 C 169.322 901.436, 163.156 899.945, 160.004 894.775 C 158.219 891.847, 158.007 889.727, 158.004 874.750 L 158 858 154.500 858 L 151 858 151 875.484 L 151 892.968 148.250 896.019 C 143.343 901.462, 134.288 901.024, 130.299 895.149 C 128.777 892.907, 128.449 889.846, 128.167 875.250 L 127.835 858 124.917 858 L 122 858 122 875.540 M 203 872.170 C 198.770 875.006, 195 882.063, 195 887.147 C 195 898.175, 203.056 904.935, 216.250 904.978 C 222.789 904.999, 223 904.922, 223 902.500 C 223 900.229, 222.610 899.998, 218.750 899.976 C 211.953 899.938, 206.675 898.308, 204.250 895.497 C 199.903 890.458, 200.760 890, 214.531 890 C 228.847 890, 228.910 889.961, 227.034 882.141 C 226.250 878.872, 224.727 876.159, 222.424 873.927 C 219.416 871.011, 218.205 870.546, 212.743 870.209 C 207.465 869.884, 205.959 870.188, 203 872.170 M 346 872.170 C 341.770 875.006, 338 882.063, 338 887.147 C 338 898.175, 346.056 904.935, 359.250 904.978 C 365.789 904.999, 366 904.922, 366 902.500 C 366 900.229, 365.610 899.998, 361.750 899.976 C 354.953 899.938, 349.675 898.308, 347.250 895.497 C 342.903 890.458, 343.760 890, 357.531 890 C 371.847 890, 371.910 889.961, 370.034 882.141 C 369.250 878.872, 367.727 876.159, 365.424 873.927 C 362.416 871.011, 361.205 870.546, 355.743 870.209 C 350.465 869.884, 348.959 870.188, 346 872.170 M 375 870.541 C 375 870.839, 377.509 877.927, 380.575 886.291 C 386.207 901.654, 388.947 906, 393 906 C 396.987 906, 399.770 901.613, 405.406 886.447 C 408.483 878.168, 411 871.052, 411 870.634 C 411 870.216, 409.540 870.014, 407.755 870.187 C 404.548 870.496, 404.448 870.667, 399.371 884.500 C 396.545 892.200, 393.677 898.500, 392.998 898.500 C 392.319 898.500, 389.665 892.650, 387.101 885.500 C 384.537 878.350, 382.088 871.938, 381.660 871.250 C 380.914 870.052, 375 869.423, 375 870.541 M 207.110 876.396 C 204.680 877.742, 202.100 881.482, 202.035 883.750 C 202.010 884.665, 204.548 885, 211.500 885 C 220.451 885, 221 884.880, 221 882.923 C 221 881.781, 219.685 879.531, 218.077 877.923 C 214.867 874.713, 211.094 874.187, 207.110 876.396 M 247.420 876.829 C 243.382 879.365, 241.607 883.818, 242.274 889.734 C 243.711 902.486, 260.424 903.988, 263.825 891.672 C 266.875 880.624, 256.428 871.172, 247.420 876.829 M 308.030 876.279 C 304.668 877.981, 301 883.668, 301 887.180 C 301 891.251, 303.378 896.451, 306.117 898.369 C 307.397 899.266, 310.270 900, 312.500 900 C 317.438 900, 320.753 897.836, 322.606 893.401 C 325.441 886.616, 323.225 879.284, 317.522 876.577 C 313.533 874.685, 311.319 874.615, 308.030 876.279 M 350.110 876.396 C 347.680 877.742, 345.100 881.482, 345.035 883.750 C 345.010 884.665, 347.548 885, 354.500 885 C 363.451 885, 364 884.880, 364 882.923 C 364 881.781, 362.685 879.531, 361.077 877.923 C 357.867 874.713, 354.094 874.187, 350.110 876.396" stroke="none" fill="#2cd304" fill-rule="evenodd"/><path d="M 144 31.109 C 134.839 32.147, 128.797 33.518, 119 36.781 C 98.873 43.485, 80.853 55.046, 65.482 71.117 C 49.423 87.907, 38.390 108.855, 32.650 133.452 L 30.538 142.500 30.252 507 C 29.937 907.963, 29.560 882.236, 36.052 902.505 C 41.202 918.580, 47.364 930.330, 57.578 943.551 C 77.154 968.890, 103.547 984.964, 136.626 991.695 C 145.086 993.416, 162.606 993.500, 512 993.500 C 861.394 993.500, 878.914 993.416, 887.374 991.695 C 916.552 985.758, 939.433 973.245, 958.557 952.767 C 972.025 938.346, 981.846 921.554, 987.956 902.500 C 994.416 882.352, 994.062 906.710, 993.724 506.500 C 993.438 168.062, 993.297 141.975, 991.716 135.025 C 985.926 109.586, 975.060 88.647, 958.653 71.315 C 936.833 48.263, 909.319 34.395, 878.789 31.061 C 866.907 29.763, 155.470 29.810, 144 31.109 M 122.667 201.667 C 122.300 202.033, 122 308.233, 122 437.667 L 122 673 154.495 673 L 186.991 673 187.245 567.250 L 187.500 461.500 311.500 461.500 L 435.500 461.500 435.755 567.250 L 436.009 673 468.005 673 L 500 673 500 437 L 500 201 468 201 L 436 201 436 302.500 L 436 404 311.500 404 L 187 404 187 302.500 L 187 201 155.167 201 C 137.658 201, 123.033 201.300, 122.667 201.667 M 560 437 L 560 673 592 673 L 624 673 624 596 L 624 519 690.750 518.998 C 727.462 518.996, 763.549 518.534, 770.942 517.970 C 810.699 514.937, 844.368 500.724, 870.344 476.009 C 905.226 442.819, 921.851 397.718, 918.011 346.692 C 914.918 305.581, 901.396 275.425, 873.512 247.449 C 846.165 220.014, 812.874 205.258, 771 202.014 C 764.125 201.481, 713.837 201.035, 659.250 201.023 L 560 201 560 437 M 624.461 259.250 C 624.199 259.938, 624.101 305.725, 624.242 361 L 624.500 461.500 692.500 461.475 C 766.659 461.447, 769.100 461.291, 787.402 455.411 C 821.126 444.576, 844.340 419.134, 851.664 384.984 C 853.889 374.607, 854.184 346.827, 852.168 337.500 C 847.606 316.387, 838.950 300.746, 824.099 286.775 C 806.295 270.027, 785.426 261.339, 757.423 259.019 C 738.904 257.485, 625.058 257.683, 624.461 259.250 M 255.032 745.187 C 246.167 751.193, 250.041 764, 260.723 764 C 264.287 764, 265.726 763.428, 268.077 761.077 C 276.767 752.387, 265.200 738.297, 255.032 745.187 M 716 788.500 L 716 831 725 831 L 734 831 734 788.500 L 734 746 725 746 L 716 746 716 788.500 M 124.702 749.632 C 124.316 750.018, 124 768.483, 124 790.667 L 124 831 134 831 L 144 831 144 814.500 L 144 798 159.500 798 L 175 798 175 814.500 L 175 831 185 831 L 195 831 195 789.964 L 195 748.928 185.250 749.214 L 175.500 749.500 175.225 765.250 L 174.949 781 159.500 781 L 144.051 781 143.775 765.250 L 143.500 749.500 134.452 749.215 C 129.475 749.058, 125.087 749.246, 124.702 749.632 M 498.750 749.559 C 498.337 749.985, 498 768.483, 498 790.667 L 498 831 508 831 L 518 831 518 819.603 L 518 808.206 530.250 807.839 C 541.590 807.500, 542.898 807.253, 547.859 804.518 C 558.106 798.868, 563.008 790.301, 562.990 778.072 C 562.978 769.806, 560.003 763.023, 554.029 757.637 C 546.003 750.401, 543.120 749.687, 520 749.209 C 508.725 748.976, 499.163 749.134, 498.750 749.559 M 349 764 L 349 771 344 771 L 339 771 339 778.500 L 339 786 344 786 L 349 786 349 801.788 C 349 816.172, 349.200 817.973, 351.250 822.038 C 354.761 829.001, 359.660 831, 373.212 831 L 384 831 384 823.500 L 384 816 376.700 816 C 372.356 816, 368.914 815.514, 368.200 814.800 C 367.383 813.983, 367 809.200, 367 799.800 L 367 786 375.500 786 L 384 786 384 778.500 L 384 771 375.500 771 L 367 771 367 764 L 367 757 358 757 L 349 757 349 764 M 518 779.099 L 518 792.199 526.928 791.849 C 534.090 791.569, 536.415 791.083, 538.678 789.393 C 545.034 784.644, 545.430 775.230, 539.521 769.321 C 536.246 766.046, 536.073 766, 527.100 766 L 518 766 518 779.099 M 415 770.877 C 400.257 775.719, 391.072 788.854, 392.242 803.422 C 393.165 814.929, 399.312 824.025, 409.577 829.077 C 413.798 831.154, 415.926 831.498, 424.500 831.489 C 433.382 831.480, 435.066 831.181, 439.563 828.817 C 449.910 823.378, 456.210 813.337, 456.357 802.049 C 456.523 789.251, 450.272 778.726, 439.323 773.369 C 434.879 771.196, 432.035 770.567, 425.608 770.341 C 421.149 770.184, 416.375 770.426, 415 770.877 M 593 770.935 C 583.751 773.759, 575.268 781.666, 572.479 790.063 C 569.890 797.858, 570.366 808.838, 573.606 816.058 C 576.483 822.468, 582.092 828.305, 587.578 830.597 C 591.998 832.444, 602.115 832.386, 606.782 830.488 C 608.827 829.656, 611.956 827.294, 613.735 825.238 L 616.970 821.500 616.985 826.250 L 617 831 626 831 L 635 831 634.980 817.250 C 634.969 809.688, 634.507 800.364, 633.953 796.532 C 632.122 783.862, 624.813 774.804, 613.774 771.526 C 608.419 769.935, 597.310 769.619, 593 770.935 M 765.492 771.738 C 757.209 774.700, 749.384 782.051, 746.585 789.500 C 743.915 796.606, 744.399 809.004, 747.588 815.170 C 750.185 820.193, 756.143 826.037, 761.437 828.755 C 768.732 832.500, 781.181 833.066, 789.262 830.020 C 809.172 822.514, 815.517 796.801, 801.348 781.042 C 794.739 773.691, 788.473 770.746, 778.500 770.303 C 772.616 770.041, 769.176 770.421, 765.492 771.738 M 219.684 772.449 C 217.585 773.197, 214.951 774.639, 213.831 775.653 C 209.283 779.769, 209 781.600, 209 806.950 L 209 831 218 831 L 227 831 227 809.107 C 227 784.138, 226.228 786, 236.582 786 L 243 786 243 778.500 L 243 771 233.250 771.044 C 227.677 771.069, 221.865 771.671, 219.684 772.449 M 252 801 L 252 831 261 831 L 270 831 270 801 L 270 771 261 771 L 252 771 252 801 M 294.764 771.996 C 286.185 774.579, 281 781.331, 281 789.918 C 281 803.128, 289.135 809, 307.436 809 C 313.795 809, 316 810.072, 316 813.165 C 316 816.273, 312.507 817, 297.566 817 L 283 817 283 824 L 283 831 300.532 831 C 314.094 831, 318.903 830.650, 321.768 829.452 C 332.087 825.141, 336.721 813.522, 332.119 803.500 C 328.581 795.796, 324.650 793.948, 310 793.105 L 299.500 792.500 299.500 789.500 L 299.500 786.500 313.750 786.223 L 328 785.945 328 778.473 L 328 771 312.750 771.086 C 304.363 771.133, 296.269 771.543, 294.764 771.996 M 651.054 797.662 C 656.784 814.825, 660.764 825.190, 662.227 826.757 C 665.706 830.482, 669.405 832, 675 832 C 680.595 832, 684.294 830.482, 687.773 826.757 C 689.236 825.190, 693.219 814.815, 698.958 797.626 L 707.871 770.929 698.185 771.215 L 688.500 771.500 682.353 792.814 C 678.972 804.537, 675.971 814.363, 675.684 814.650 C 674.721 815.612, 673.254 811.590, 669.062 796.500 C 666.770 788.250, 664.212 779.138, 663.376 776.250 L 661.858 771 652.006 771 L 642.153 771 651.054 797.662 M 815 771.713 C 815 774.419, 832.523 824.395, 834.234 826.571 C 840.502 834.539, 857.138 833.428, 861.637 824.740 C 862.949 822.207, 880 772.525, 880 771.236 C 880 771.066, 875.658 771.056, 870.350 771.214 L 860.701 771.500 854.567 793 C 851.193 804.825, 847.998 814.500, 847.466 814.500 C 846.935 814.500, 843.755 804.825, 840.400 793 L 834.300 771.500 824.650 771.214 C 819.342 771.056, 815 771.281, 815 771.713 M 415.941 788.703 C 409.849 793.829, 408.460 801.188, 412.148 808.806 C 417.145 819.128, 431.216 819.217, 436.520 808.961 C 438.837 804.480, 438.437 795.944, 435.720 791.912 C 432.806 787.588, 429.670 786.033, 423.827 786.015 C 420.194 786.003, 418.438 786.602, 415.941 788.703 M 595.190 788.026 C 587.268 792.856, 586.856 807.809, 594.480 813.806 C 598.545 817.003, 603.216 817.553, 607.642 815.353 C 612.855 812.762, 615.248 809.056, 615.770 802.762 C 616.599 792.769, 611.243 786.007, 602.500 786.007 C 600.248 786.007, 597.053 786.889, 595.190 788.026 M 769.299 787.960 C 765.008 790.576, 762.999 794.801, 763.004 801.200 C 763.010 810.519, 768.395 816.385, 776.944 816.385 C 790.662 816.385, 796.063 797.963, 785.059 788.703 C 781.042 785.323, 774.155 784.998, 769.299 787.960 M 235.182 874.750 C 235.613 895.075, 236.229 897.675, 241.615 901.912 C 248.213 907.102, 258.550 907.090, 264.477 901.886 C 273.886 893.625, 272.525 876.942, 261.998 871.499 C 256.162 868.481, 245.682 870.282, 243.080 874.750 C 242.339 876.022, 242.053 873.702, 242.030 866.250 L 242 856 238.392 856 L 234.784 856 235.182 874.750 M 324 866.104 L 324 876.207 320.465 873.104 C 313.962 867.393, 303.543 869.291, 297.639 877.261 C 294.402 881.629, 294.199 891.295, 297.225 896.947 C 303.447 908.571, 321.232 908.850, 327.734 897.425 C 329.824 893.751, 329.968 892.299, 329.984 874.750 L 330 856 327 856 L 324 856 324 866.104 M 122 875.540 C 122 891.014, 122.232 893.534, 123.969 896.939 C 127.995 904.831, 138.946 908.141, 147.434 904.032 C 149.964 902.807, 152.506 900.923, 153.083 899.846 C 154.080 897.982, 154.320 898.057, 157.988 901.370 C 166.453 909.017, 180.661 906.556, 185.373 896.626 C 186.684 893.863, 187 889.781, 187 875.599 L 187 858 184 858 L 181 858 181 874.032 C 181 892.069, 180.085 895.870, 175.128 898.434 C 169.322 901.436, 163.156 899.945, 160.004 894.775 C 158.219 891.847, 158.007 889.727, 158.004 874.750 L 158 858 154.500 858 L 151 858 151 875.484 L 151 892.968 148.250 896.019 C 143.343 901.462, 134.288 901.024, 130.299 895.149 C 128.777 892.907, 128.449 889.846, 128.167 875.250 L 127.835 858 124.917 858 L 122 858 122 875.540 M 203 872.170 C 198.770 875.006, 195 882.063, 195 887.147 C 195 898.175, 203.056 904.935, 216.250 904.978 C 222.789 904.999, 223 904.922, 223 902.500 C 223 900.229, 222.610 899.998, 218.750 899.976 C 211.953 899.938, 206.675 898.308, 204.250 895.497 C 199.903 890.458, 200.760 890, 214.531 890 C 228.847 890, 228.910 889.961, 227.034 882.141 C 226.250 878.872, 224.727 876.159, 222.424 873.927 C 219.416 871.011, 218.205 870.546, 212.743 870.209 C 207.465 869.884, 205.959 870.188, 203 872.170 M 346 872.170 C 341.770 875.006, 338 882.063, 338 887.147 C 338 898.175, 346.056 904.935, 359.250 904.978 C 365.789 904.999, 366 904.922, 366 902.500 C 366 900.229, 365.610 899.998, 361.750 899.976 C 354.953 899.938, 349.675 898.308, 347.250 895.497 C 342.903 890.458, 343.760 890, 357.531 890 C 371.847 890, 371.910 889.961, 370.034 882.141 C 369.250 878.872, 367.727 876.159, 365.424 873.927 C 362.416 871.011, 361.205 870.546, 355.743 870.209 C 350.465 869.884, 348.959 870.188, 346 872.170 M 375 870.541 C 375 870.839, 377.509 877.927, 380.575 886.291 C 386.207 901.654, 388.947 906, 393 906 C 396.987 906, 399.770 901.613, 405.406 886.447 C 408.483 878.168, 411 871.052, 411 870.634 C 411 870.216, 409.540 870.014, 407.755 870.187 C 404.548 870.496, 404.448 870.667, 399.371 884.500 C 396.545 892.200, 393.677 898.500, 392.998 898.500 C 392.319 898.500, 389.665 892.650, 387.101 885.500 C 384.537 878.350, 382.088 871.938, 381.660 871.250 C 380.914 870.052, 375 869.423, 375 870.541 M 207.110 876.396 C 204.680 877.742, 202.100 881.482, 202.035 883.750 C 202.010 884.665, 204.548 885, 211.500 885 C 220.451 885, 221 884.880, 221 882.923 C 221 881.781, 219.685 879.531, 218.077 877.923 C 214.867 874.713, 211.094 874.187, 207.110 876.396 M 247.420 876.829 C 243.382 879.365, 241.607 883.818, 242.274 889.734 C 243.711 902.486, 260.424 903.988, 263.825 891.672 C 266.875 880.624, 256.428 871.172, 247.420 876.829 M 308.030 876.279 C 304.668 877.981, 301 883.668, 301 887.180 C 301 891.251, 303.378 896.451, 306.117 898.369 C 307.397 899.266, 310.270 900, 312.500 900 C 317.438 900, 320.753 897.836, 322.606 893.401 C 325.441 886.616, 323.225 879.284, 317.522 876.577 C 313.533 874.685, 311.319 874.615, 308.030 876.279 M 350.110 876.396 C 347.680 877.742, 345.100 881.482, 345.035 883.750 C 345.010 884.665, 347.548 885, 354.500 885 C 363.451 885, 364 884.880, 364 882.923 C 364 881.781, 362.685 879.531, 361.077 877.923 C 357.867 874.713, 354.094 874.187, 350.110 876.396" stroke="none" fill="#141414" fill-rule="evenodd"/></svg>